<svg width="25" height="25" viewBox="0 0 25 25" fill="#FF842B" xmlns="http://www.w3.org/2000/svg">
<path fill-rule="evenodd" clip-rule="evenodd" d="M12.5 0C5.59687 0 0 5.59687 0 12.5C0 19.4031 5.59687 25 12.5 25C19.4031 25 25 19.4031 25 12.5C25 5.59687 19.4031 0 12.5 0ZM18.2937 8.50104C18.1062 10.4771 17.2917 15.274 16.8781 17.4875C16.7031 18.425 16.3573 18.7385 16.024 18.7687C15.2979 18.8354 14.7469 18.2885 14.0437 17.8281C12.9437 17.1073 12.3219 16.6583 11.2542 15.9542C10.0198 15.1406 10.8198 14.6937 11.5229 13.9635C11.7073 13.7719 14.9052 10.8625 14.9677 10.599C14.975 10.5656 14.9833 10.4427 14.9094 10.3781C14.8354 10.3135 14.7281 10.3354 14.651 10.3531C14.5406 10.3781 12.7833 11.5396 9.37813 13.8375C8.87917 14.1802 8.42708 14.3469 8.02188 14.3385C7.57604 14.3292 6.71771 14.0865 6.07917 13.8781C5.29688 13.624 4.67396 13.4885 4.72812 13.0573C4.75625 12.8323 5.06563 12.6021 5.65729 12.3667C9.30104 10.7792 11.7312 9.73229 12.9469 9.22604C16.4187 7.78229 17.1396 7.53125 17.6104 7.52292C18.2 7.51458 18.3417 8.00104 18.2937 8.50104Z" fill="#FF842B"/>
</svg>
