<svg width="25" height="25" viewBox="0 0 25 25" fill="none" xmlns="http://www.w3.org/2000/svg">
<g clip-path="url(#clip0_2037_17949)">
<path d="M18.0604 25H6.93965C3.10347 25 0 21.8965 0 18.0604V6.93965C0 3.10347 3.10347 0 6.93965 0H18.0604C21.8965 0 25 3.10347 25 6.93965V18.0604C25 21.8965 21.8965 25 18.0604 25Z" fill="#FF842B"/>
<path d="M18.9644 6.89653C18.9644 6.42241 18.5764 6.03447 18.1023 6.03447C17.6282 6.03447 17.2402 6.42241 17.2402 6.89653C17.2402 7.37065 17.6282 7.75859 18.1023 7.75859C18.5764 7.75864 18.9644 7.3707 18.9644 6.89653Z" fill="white"/>
<path d="M12.5 16.3793C10.431 16.3793 8.62065 14.5689 8.62065 12.5C8.62065 10.4311 10.431 8.6207 12.5 8.6207C14.5689 8.6207 16.3792 10.4311 16.3792 12.5C16.3792 14.5689 14.5689 16.3793 12.5 16.3793ZM12.5 6.89653C9.39648 6.89653 6.89648 9.39653 6.89648 12.5C6.89648 15.6035 9.39648 18.1035 12.5 18.1035C15.6034 18.1035 18.1034 15.6035 18.1034 12.5C18.1034 9.39653 15.6034 6.89653 12.5 6.89653Z" fill="white"/>
<path d="M20.6894 18.2759C20.6894 19.6121 19.6118 20.6896 18.2756 20.6896H6.72388C5.38765 20.6896 4.31011 19.6121 4.31011 18.2759V6.72412C4.31011 5.38789 5.3877 4.31035 6.72388 4.31035H18.2756C19.6119 4.31035 20.6894 5.38794 20.6894 6.72412V18.2759ZM18.1032 2.58623H6.89629C4.52559 2.58623 2.58594 4.52588 2.58594 6.89658V18.1035C2.58594 20.4742 4.52559 22.4138 6.89629 22.4138H18.1032C20.4739 22.4138 22.4135 20.4742 22.4135 18.1035V6.89653C22.4135 4.52588 20.4739 2.58623 18.1032 2.58623Z" fill="white"/>
</g>
<defs>
<clipPath id="clip0_2037_17949">
<rect width="25" height="25" fill="white"/>
</clipPath>
</defs>
</svg>
